<?xml version="1.0" encoding="UTF-8" standalone="no"?>
<!-- Created with Inkscape (http://www.inkscape.org/) -->

<svg
   xmlns:dc="http://purl.org/dc/elements/1.1/"
   xmlns:cc="http://creativecommons.org/ns#"
   xmlns:rdf="http://www.w3.org/1999/02/22-rdf-syntax-ns#"
   xmlns:svg="http://www.w3.org/2000/svg"
   xmlns="http://www.w3.org/2000/svg"
   xmlns:xlink="http://www.w3.org/1999/xlink"
   xmlns:sodipodi="http://sodipodi.sourceforge.net/DTD/sodipodi-0.dtd"
   xmlns:inkscape="http://www.inkscape.org/namespaces/inkscape"
   width="20"
   height="20.299999"
   id="svg3499"
   version="1.1"
   inkscape:version="0.48.3.1 r9886"
   sodipodi:docname="Download.svg">
  <defs
     id="defs3501">
    <linearGradient
       inkscape:collect="always"
       xlink:href="#linearGradient4342"
       id="linearGradient4604"
       gradientUnits="userSpaceOnUse"
       x1="-1261.2008"
       y1="676.29749"
       x2="-1232.7772"
       y2="676.04877" />
    <linearGradient
       id="linearGradient4342">
      <stop
         style="stop-color:#ed7020;stop-opacity:1;"
         offset="0"
         id="stop4344" />
      <stop
         id="stop4350"
         offset="0.5"
         style="stop-color:#ff8333;stop-opacity:1;" />
      <stop
         style="stop-color:#ed7020;stop-opacity:1;"
         offset="1"
         id="stop4346" />
    </linearGradient>
    <filter
       color-interpolation-filters="sRGB"
       inkscape:collect="always"
       id="filter4431">
      <feGaussianBlur
         inkscape:collect="always"
         stdDeviation="0.444375"
         id="feGaussianBlur4433" />
    </filter>
    <linearGradient
       inkscape:collect="always"
       xlink:href="#linearGradient4342-1"
       id="linearGradient3891"
       gradientUnits="userSpaceOnUse"
       gradientTransform="matrix(1.0050248,0,0,1.0050248,70.117187,-65.630983)"
       x1="-921.01917"
       y1="288.31354"
       x2="-1320.0829"
       y2="284.33792" />
    <linearGradient
       id="linearGradient4342-1">
      <stop
         style="stop-color:#ed7020;stop-opacity:1;"
         offset="0"
         id="stop4344-7" />
      <stop
         id="stop4350-4"
         offset="0.5"
         style="stop-color:#ff8333;stop-opacity:1;" />
      <stop
         style="stop-color:#ed7020;stop-opacity:1;"
         offset="1"
         id="stop4346-0" />
    </linearGradient>
    <linearGradient
       inkscape:collect="always"
       xlink:href="#linearGradient4342-9"
       id="linearGradient3916"
       gradientUnits="userSpaceOnUse"
       gradientTransform="matrix(1.0050248,0,0,1.0050248,70.117187,-65.630983)"
       x1="-921.01917"
       y1="288.31354"
       x2="-1320.0829"
       y2="284.33792" />
    <linearGradient
       id="linearGradient4342-9">
      <stop
         style="stop-color:#ed7020;stop-opacity:1;"
         offset="0"
         id="stop4344-4" />
      <stop
         id="stop4350-8"
         offset="0.5"
         style="stop-color:#ff8333;stop-opacity:1;" />
      <stop
         style="stop-color:#ed7020;stop-opacity:1;"
         offset="1"
         id="stop4346-8" />
    </linearGradient>
    <linearGradient
       inkscape:collect="always"
       xlink:href="#linearGradient4342-2"
       id="linearGradient3912"
       gradientUnits="userSpaceOnUse"
       gradientTransform="matrix(1.0050248,0,0,1.0050248,70.117187,-65.630983)"
       x1="-921.01917"
       y1="288.31354"
       x2="-1320.0829"
       y2="284.33792" />
    <linearGradient
       id="linearGradient4342-2">
      <stop
         style="stop-color:#ed7020;stop-opacity:1;"
         offset="0"
         id="stop4344-45" />
      <stop
         id="stop4350-5"
         offset="0.5"
         style="stop-color:#ff8333;stop-opacity:1;" />
      <stop
         style="stop-color:#ed7020;stop-opacity:1;"
         offset="1"
         id="stop4346-1" />
    </linearGradient>
  </defs>
  <sodipodi:namedview
     id="base"
     pagecolor="#ffffff"
     bordercolor="#666666"
     borderopacity="1.0"
     inkscape:pageopacity="0.0"
     inkscape:pageshadow="2"
     inkscape:zoom="5.6"
     inkscape:cx="-9.7161356"
     inkscape:cy="0.078011493"
     inkscape:document-units="px"
     inkscape:current-layer="layer1"
     showgrid="false"
     inkscape:window-width="1920"
     inkscape:window-height="1017"
     inkscape:window-x="1912"
     inkscape:window-y="-8"
     inkscape:window-maximized="1" />
  <metadata
     id="metadata3504">
    <rdf:RDF>
      <cc:Work
         rdf:about="">
        <dc:format>image/svg+xml</dc:format>
        <dc:type
           rdf:resource="http://purl.org/dc/dcmitype/StillImage" />
        <dc:title></dc:title>
      </cc:Work>
    </rdf:RDF>
  </metadata>
  <g
     inkscape:label="Ebene 1"
     inkscape:groupmode="layer"
     id="layer1"
     transform="translate(0,-1032.0622)">
    <g
       transform="matrix(0.04,0,0,0.04,115.58239,1004.1448)"
       id="g4170">
      <g
         transform="matrix(1.1967858,0,0,1.1967858,-1375.6825,707.2764)"
         id="g3962">
        <path
           sodipodi:nodetypes="ccccc"
           inkscape:connector-curvature="0"
           id="path3964"
           d="m -1254.0597,205.11441 396.00001,0 2,208 -400.00001,0 z"
           style="fill:#000000;fill-opacity:1;stroke:none" />
        <rect
           y="-4.6713037"
           x="-1256.0597"
           height="400"
           width="400"
           id="rect3966"
           style="fill:url(#linearGradient3912);fill-opacity:1;stroke:none" />
      </g>
      <path
         id="path3970"
         d="m -2768.8045,774.25901 -2.3936,347.66629 154.0862,-4.7872 -0.037,-342.87909 -151.6552,0 z m 39.5687,45.29086 19.0738,0 0,61.07347 -19.0738,0 0,-61.07347 z m 53.444,0 19.0738,0 0,61.07347 -19.0738,0 0,-61.07347 z m 65.7858,84.4482 -2.3936,217.92723 104.4944,-2.3936 0,-215.53363 -102.1008,0 z m -119.2298,19.89656 19.0738,0 0,61.07348 -19.0738,0 0,-61.07348 z m 53.444,0 19.0738,0 0,61.07348 -19.0738,0 0,-61.07348 z m 104.9057,19.93396 19.0738,0 0,61.03611 -19.0738,0 0,-61.03611 z m -158.3497,84.41081 19.0738,0 0,61.0361 -19.0738,0 0,-61.0361 z m 53.444,0 19.0738,0 0,61.0361 -19.0738,0 0,-61.0361 z m 104.9057,0 19.0738,0 0,61.0361 -19.0738,0 0,-61.0361 z m 110.6653,1.6456 -33.697,35.0434 27.7131,0 0,65.4866 -365.0197,0 0,11.9678 371.0036,0 5.984,0 0,-5.9839 0,-71.4705 27.713,0 -33.697,-35.0434 z"
         style="fill:#ffffff;fill-opacity:1;stroke:none"
         inkscape:connector-curvature="0" />
    </g>
  </g>
</svg>
