<?xml version="1.0" encoding="UTF-8" standalone="no"?>
<!-- Created with Inkscape (http://www.inkscape.org/) -->

<svg
   xmlns:dc="http://purl.org/dc/elements/1.1/"
   xmlns:cc="http://creativecommons.org/ns#"
   xmlns:rdf="http://www.w3.org/1999/02/22-rdf-syntax-ns#"
   xmlns:svg="http://www.w3.org/2000/svg"
   xmlns="http://www.w3.org/2000/svg"
   xmlns:sodipodi="http://sodipodi.sourceforge.net/DTD/sodipodi-0.dtd"
   xmlns:inkscape="http://www.inkscape.org/namespaces/inkscape"
   width="100"
   height="100"
   id="svg3399"
   version="1.1"
   inkscape:version="0.48.3.1 r9886"
   sodipodi:docname="Load.svg">
  <defs
     id="defs3401" />
  <sodipodi:namedview
     id="base"
     pagecolor="#ffffff"
     bordercolor="#666666"
     borderopacity="1.0"
     inkscape:pageopacity="0.0"
     inkscape:pageshadow="2"
     inkscape:zoom="1.979899"
     inkscape:cx="50.71596"
     inkscape:cy="15.505076"
     inkscape:document-units="px"
     inkscape:current-layer="layer1"
     showgrid="false"
     inkscape:window-width="1920"
     inkscape:window-height="1017"
     inkscape:window-x="1912"
     inkscape:window-y="-8"
     inkscape:window-maximized="1" />
  <metadata
     id="metadata3404">
    <rdf:RDF>
      <cc:Work
         rdf:about="">
        <dc:format>image/svg+xml</dc:format>
        <dc:type
           rdf:resource="http://purl.org/dc/dcmitype/StillImage" />
        <dc:title />
      </cc:Work>
    </rdf:RDF>
  </metadata>
  <g
     inkscape:label="Ebene 1"
     inkscape:groupmode="layer"
     id="layer1"
     transform="translate(0,-952.36218)">
    <g
       id="g3950"
       transform="matrix(0.18165304,0,0,0.18165304,-26.806756,1095.1626)"
       style="fill:#006878;fill-opacity:1">
      <path
         inkscape:connector-curvature="0"
         id="rect3830"
         d="m 434.41448,-627.0543 -4.32621,6.46504 68.66054,45.91142 -135.88712,0 63.07048,-16.89172 -2.01727,-7.51012 -91.0208,24.37753 0,0.0243 -0.0729,0 0,180 180,0 0,-180 -0.0729,0 -78.33378,-52.37645 z m -0.19443,89.22225 c 3.51339,-0.095 6.83783,1.59168 8.72536,4.86093 l 31.83905,55.00135 c 2.74557,4.75547 1.06104,10.64641 -3.6943,13.39185 l -54.97705,31.69322 c -4.75523,2.74551 -10.67063,1.23116 -13.41615,-3.52417 l 0,-36.04375 c 5.19864,4.45271 11.91823,7.21847 19.29787,7.21847 16.41924,0 29.65164,-13.42691 29.65164,-29.84607 -0.53196,-20.86167 -15.78317,-33.92556 -42.72753,-29.50581 l 20.61032,-11.88495 c 1.48607,-0.85788 3.09373,-1.31828 4.69079,-1.36107 z m -43.40805,23.6484 0,57.16446 -19.95408,-34.36673 c -2.74547,-4.75533 -1.06105,-10.67064 3.69429,-13.41615 l 16.25979,-9.38158 z m 31.18283,1.33676 c 9.84911,0 17.76668,7.91774 17.76668,17.76667 0,9.84921 -7.91757,17.93681 -17.76668,17.93681 -9.84896,0 -17.93681,-8.0876 -17.93681,-17.93681 0,-9.84893 8.08775,-17.76667 17.93681,-17.76667 z m -5.03106,7.53443 0,20.63462 12.73562,-10.40238 -12.73562,-10.23224 z"
         style="fill:#006878;fill-opacity:1;stroke:none" />
      <path
         inkscape:connector-curvature="0"
         id="path3849"
         d="m 265.10245,-786.11607 c -4.10559,0 -7.4375,3.39601 -7.4375,7.625 l 0,535.25 c 0,4.22899 3.33191,7.625 7.4375,7.625 l 315.46875,0 c 4.10559,0 7.40625,-3.39601 7.40625,-7.625 l 0,-535.25 c 0,-4.22899 -3.30066,-7.625 -7.40625,-7.625 l -315.46875,0 z m 48.03125,8.25 c 8.97463,0 16.25,7.27537 16.25,16.25 0,8.97463 -7.27537,16.25 -16.25,16.25 -8.97463,0 -16.25,-7.27537 -16.25,-16.25 0,-8.97463 7.27537,-16.25 16.25,-16.25 z m 0,2.65625 c -7.50681,0 -13.59375,6.08694 -13.59375,13.59375 0,7.50681 6.08694,13.59375 13.59375,13.59375 7.50681,0 13.59375,-6.08694 13.59375,-13.59375 0,-7.50681 -6.08694,-13.59375 -13.59375,-13.59375 z m 4.3125,2.65625 c 2.92797,0 5.3125,2.38453 5.3125,5.3125 0,2.92797 -2.38453,5.28125 -5.3125,5.28125 -2.92797,0 -5.28125,-2.35328 -5.28125,-5.28125 0,-2.92797 2.35328,-5.3125 5.28125,-5.3125 z m -7.75,9.96875 c 1.42522,0 2.59375,1.13728 2.59375,2.5625 0,1.42522 -1.16853,2.59375 -2.59375,2.59375 -1.42522,0 -2.59375,-1.16853 -2.59375,-2.59375 0,-1.42522 1.16853,-2.5625 2.59375,-2.5625 z m -34.96875,32.8125 296.21875,0 0,437.8125 -296.21875,0 0,-437.8125 z m 128.78125,449.3125 38.65625,0 c 5.08311,0 9.15625,4.10439 9.15625,9.1875 l 0,16.875 c 0,5.08311 -4.07314,9.15625 -9.15625,9.15625 l -38.65625,0 c -5.08311,0 -9.15625,-4.07314 -9.15625,-9.15625 l 0,-16.875 c 0,-5.08311 4.07314,-9.1875 9.15625,-9.1875 z m -0.59375,3.53125 c -2.8888,0.28216 -5.03125,2.66149 -5.03125,5.65625 l 0,16.875 c 0,3.19441 2.43059,5.625 5.625,5.625 l 38.65625,0 c 3.19441,0 5.625,-2.43059 5.625,-5.625 l 0,-16.875 c 0,-3.19441 -2.44508,-5.65625 -5.625,-5.65625 l -38.65625,0 c -0.19874,0 -0.40116,-0.0188 -0.59375,0 z"
         style="fill:#006878;fill-opacity:1;stroke:none"
         inkscape:export-filename="E:\Dokumente\APP2\Entwurf neue GUI\Play.png"
         inkscape:export-xdpi="15.803217"
         inkscape:export-ydpi="15.803217" />
    </g>
  </g>
</svg>
