<?xml version="1.0" encoding="UTF-8" standalone="no"?>
<!-- Created with Inkscape (http://www.inkscape.org/) -->

<svg
   xmlns:dc="http://purl.org/dc/elements/1.1/"
   xmlns:cc="http://creativecommons.org/ns#"
   xmlns:rdf="http://www.w3.org/1999/02/22-rdf-syntax-ns#"
   xmlns:svg="http://www.w3.org/2000/svg"
   xmlns="http://www.w3.org/2000/svg"
   xmlns:sodipodi="http://sodipodi.sourceforge.net/DTD/sodipodi-0.dtd"
   xmlns:inkscape="http://www.inkscape.org/namespaces/inkscape"
   width="100"
   height="100"
   id="svg3399"
   version="1.1"
   inkscape:version="0.48.3.1 r9886"
   sodipodi:docname="Scan.svg">
  <defs
     id="defs3401" />
  <sodipodi:namedview
     id="base"
     pagecolor="#ffffff"
     bordercolor="#666666"
     borderopacity="1.0"
     inkscape:pageopacity="0.0"
     inkscape:pageshadow="2"
     inkscape:zoom="2.8"
     inkscape:cx="26.178092"
     inkscape:cy="25.089054"
     inkscape:document-units="px"
     inkscape:current-layer="g3833"
     showgrid="false"
     inkscape:window-width="1920"
     inkscape:window-height="1017"
     inkscape:window-x="-8"
     inkscape:window-y="-8"
     inkscape:window-maximized="1" />
  <metadata
     id="metadata3404">
    <rdf:RDF>
      <cc:Work
         rdf:about="">
        <dc:format>image/svg+xml</dc:format>
        <dc:type
           rdf:resource="http://purl.org/dc/dcmitype/StillImage" />
        <dc:title />
      </cc:Work>
    </rdf:RDF>
  </metadata>
  <g
     inkscape:label="Ebene 1"
     inkscape:groupmode="layer"
     id="layer1"
     transform="translate(0,-952.36218)">
    <g
       id="g3833"
       style="fill:#ed7020;fill-opacity:1">
      <g
         id="g3821"
         style="fill:#ffffff;fill-opacity:1"
         transform="matrix(2.2727049,0,0,2.2727049,-63.635235,-1275.2856)">
        <path
           style="fill:#ffffff;fill-opacity:1"
           d="m 56.357852,1014.3456 0,-1.9073 0,-1.9074 0,-1.9982 0.999092,0 0.999091,0 1.998184,0 2.906448,0 2.906454,0 0,4.9047 0,4.9046 -1.998188,0 -1.998184,0 -3.814714,0 -0.999091,0 -0.999092,0 z m 4.904632,1.9982 2.906449,0 0,-2.9064 0,-2.9065 -2.906449,0 -2.906449,0 0,2.9065 0,2.9064 z m 0,-1.9982 -0.908265,0 0,-0.9082 0,-0.9083 0.908265,0 0.908265,0 0,0.9083 0,0.9082 z"
           id="path4976"
           inkscape:connector-curvature="0"
           sodipodi:nodetypes="ccccccccccccccccccccccccccccccccccc" />
        <path
           sodipodi:nodetypes="ccccccccccccccccccccccccccc"
           inkscape:connector-curvature="0"
           id="path5032"
           d="m 36.920977,995.81703 -6.721163,0 0,-6.72116 0,-6.72116 6.721163,0 6.721162,0 0,6.72116 0,6.72116 z m 0,-1.81653 4.904632,0 0,-4.90463 0,-4.90463 -4.904632,0 -4.904632,0 0,4.90463 0,4.90463 z m 0,-1.99818 -2.906449,0 0,-2.90645 0,-2.90645 2.906449,0 2.906448,0 0,2.90645 0,2.90645 z"
           style="fill:#ffffff;fill-opacity:1" />
        <path
           style="fill:#ffffff;fill-opacity:1"
           d="m 63.079014,995.81703 -6.721162,0 0,-6.72116 0,-6.72116 6.721162,0 6.721163,0 0,6.72116 0,6.72116 z m 0,-1.81653 4.904632,0 0,-4.90463 0,-4.90463 -4.904632,0 -4.904632,0 0,4.90463 0,4.90463 z m 0,-1.99818 -2.906448,0 0,-2.90645 0,-2.90645 2.906448,0 2.906449,0 0,2.90645 0,2.90645 z"
           id="path5034"
           inkscape:connector-curvature="0"
           sodipodi:nodetypes="ccccccccccccccccccccccccccc" />
        <path
           style="fill:#ffffff;fill-opacity:1"
           d="m 36.93247,1021.9751 -6.721163,0 0,-6.7212 0,-6.7212 6.721163,0 6.721162,0 0,6.7212 0,6.7212 z m 0,-1.8166 4.904632,0 0,-4.9046 0,-4.9046 -4.904632,0 -4.904632,0 0,4.9046 0,4.9046 z m 0,-1.9981 -2.906449,0 0,-2.9065 0,-2.9064 2.906449,0 2.906448,0 0,2.9064 0,2.9065 z"
           id="path5036"
           inkscape:connector-curvature="0"
           sodipodi:nodetypes="ccccccccccccccccccccccccccc" />
        <path
           style="font-size:medium;font-style:normal;font-variant:normal;font-weight:normal;font-stretch:normal;text-indent:0;text-align:start;text-decoration:none;line-height:normal;letter-spacing:normal;word-spacing:normal;text-transform:none;direction:ltr;block-progression:tb;writing-mode:lr-tb;text-anchor:start;baseline-shift:baseline;color:#000000;fill:#ffffff;fill-opacity:1;fill-rule:nonzero;stroke:none;stroke-width:1.81653035;marker:none;visibility:visible;display:inline;overflow:visible;enable-background:accumulate;font-family:Sans;-inkscape-font-specification:Sans"
           d="m 49.09375,983.28125 0,38.15625 1.8125,0 0,-38.15625 -1.8125,0 z"
           id="path4978"
           inkscape:connector-curvature="0" />
        <path
           style="font-size:medium;font-style:normal;font-variant:normal;font-weight:normal;font-stretch:normal;text-indent:0;text-align:start;text-decoration:none;line-height:normal;letter-spacing:normal;word-spacing:normal;text-transform:none;direction:ltr;block-progression:tb;writing-mode:lr-tb;text-anchor:start;baseline-shift:baseline;color:#000000;fill:#ffffff;fill-opacity:1;fill-rule:nonzero;stroke:none;stroke-width:1.81653035;marker:none;visibility:visible;display:inline;overflow:visible;enable-background:accumulate;font-family:Sans;-inkscape-font-specification:Sans"
           d="m 45.46875,983.28125 0,38.15625 1.8125,0 0,-38.15625 -1.8125,0 z"
           id="path4980"
           inkscape:connector-curvature="0" />
        <path
           style="font-size:medium;font-style:normal;font-variant:normal;font-weight:normal;font-stretch:normal;text-indent:0;text-align:start;text-decoration:none;line-height:normal;letter-spacing:normal;word-spacing:normal;text-transform:none;direction:ltr;block-progression:tb;writing-mode:lr-tb;text-anchor:start;baseline-shift:baseline;color:#000000;fill:#ffffff;fill-opacity:1;fill-rule:nonzero;stroke:none;stroke-width:1.81653035;marker:none;visibility:visible;display:inline;overflow:visible;enable-background:accumulate;font-family:Sans;-inkscape-font-specification:Sans"
           d="m 52.71875,983.28125 0,38.15625 1.8125,0 0,-38.15625 -1.8125,0 z"
           id="path5038"
           inkscape:connector-curvature="0" />
        <path
           style="font-size:medium;font-style:normal;font-variant:normal;font-weight:normal;font-stretch:normal;text-indent:0;text-align:start;text-decoration:none;line-height:normal;letter-spacing:normal;word-spacing:normal;text-transform:none;direction:ltr;block-progression:tb;writing-mode:lr-tb;text-anchor:start;baseline-shift:baseline;color:#000000;fill:#ffffff;fill-opacity:1;fill-rule:nonzero;stroke:none;stroke-width:1.81653035;marker:none;visibility:visible;display:inline;overflow:visible;enable-background:accumulate;font-family:Sans;-inkscape-font-specification:Sans"
           d="m 30.90625,1001.4688 0,1.8124 38.1875,0 0,-1.8124 -38.1875,0 z"
           id="path5067"
           inkscape:connector-curvature="0" />
        <path
           style="font-size:medium;font-style:normal;font-variant:normal;font-weight:normal;font-stretch:normal;text-indent:0;text-align:start;text-decoration:none;line-height:normal;letter-spacing:normal;word-spacing:normal;text-transform:none;direction:ltr;block-progression:tb;writing-mode:lr-tb;text-anchor:start;baseline-shift:baseline;color:#000000;fill:#ffffff;fill-opacity:1;fill-rule:nonzero;stroke:none;stroke-width:1.81653035;marker:none;visibility:visible;display:inline;overflow:visible;enable-background:accumulate;font-family:Sans;-inkscape-font-specification:Sans"
           d="m 30.90625,997.8125 0,1.8125 38.1875,0 0,-1.8125 -38.1875,0 z"
           id="path5069"
           inkscape:connector-curvature="0" />
        <path
           style="font-size:medium;font-style:normal;font-variant:normal;font-weight:normal;font-stretch:normal;text-indent:0;text-align:start;text-decoration:none;line-height:normal;letter-spacing:normal;word-spacing:normal;text-transform:none;direction:ltr;block-progression:tb;writing-mode:lr-tb;text-anchor:start;baseline-shift:baseline;color:#000000;fill:#ffffff;fill-opacity:1;fill-rule:nonzero;stroke:none;stroke-width:1.81653035;marker:none;visibility:visible;display:inline;overflow:visible;enable-background:accumulate;font-family:Sans;-inkscape-font-specification:Sans"
           d="m 30.90625,1005.0938 0,1.8124 38.1875,0 0,-1.8124 -38.1875,0 z"
           id="path5071"
           inkscape:connector-curvature="0" />
      </g>
    </g>
  </g>
</svg>
