<?xml version="1.0" encoding="UTF-8" standalone="no"?>
<!-- Created with Inkscape (http://www.inkscape.org/) -->

<svg
   xmlns:dc="http://purl.org/dc/elements/1.1/"
   xmlns:cc="http://creativecommons.org/ns#"
   xmlns:rdf="http://www.w3.org/1999/02/22-rdf-syntax-ns#"
   xmlns:svg="http://www.w3.org/2000/svg"
   xmlns="http://www.w3.org/2000/svg"
   xmlns:xlink="http://www.w3.org/1999/xlink"
   xmlns:sodipodi="http://sodipodi.sourceforge.net/DTD/sodipodi-0.dtd"
   xmlns:inkscape="http://www.inkscape.org/namespaces/inkscape"
   width="20"
   height="20"
   id="svg3499"
   version="1.1"
   inkscape:version="0.48.4 r9939"
   sodipodi:docname="Update.svg">
  <defs
     id="defs3501">
    <linearGradient
       inkscape:collect="always"
       xlink:href="#linearGradient4342"
       id="linearGradient4604"
       gradientUnits="userSpaceOnUse"
       x1="-1261.2008"
       y1="676.29749"
       x2="-1232.7772"
       y2="676.04877" />
    <linearGradient
       id="linearGradient4342">
      <stop
         style="stop-color:#ed7020;stop-opacity:1;"
         offset="0"
         id="stop4344" />
      <stop
         id="stop4350"
         offset="0.5"
         style="stop-color:#ff8333;stop-opacity:1;" />
      <stop
         style="stop-color:#ed7020;stop-opacity:1;"
         offset="1"
         id="stop4346" />
    </linearGradient>
    <linearGradient
       inkscape:collect="always"
       xlink:href="#linearGradient4342-1"
       id="linearGradient3891"
       gradientUnits="userSpaceOnUse"
       gradientTransform="matrix(1.0050248,0,0,1.0050248,70.117187,-65.630983)"
       x1="-921.01917"
       y1="288.31354"
       x2="-1320.0829"
       y2="284.33792" />
    <linearGradient
       id="linearGradient4342-1">
      <stop
         style="stop-color:#ed7020;stop-opacity:1;"
         offset="0"
         id="stop4344-7" />
      <stop
         id="stop4350-4"
         offset="0.5"
         style="stop-color:#ff8333;stop-opacity:1;" />
      <stop
         style="stop-color:#ed7020;stop-opacity:1;"
         offset="1"
         id="stop4346-0" />
    </linearGradient>
    <linearGradient
       inkscape:collect="always"
       xlink:href="#linearGradient4342-9"
       id="linearGradient3916"
       gradientUnits="userSpaceOnUse"
       gradientTransform="matrix(1.0050248,0,0,1.0050248,70.117187,-65.630983)"
       x1="-921.01917"
       y1="288.31354"
       x2="-1320.0829"
       y2="284.33792" />
    <linearGradient
       id="linearGradient4342-9">
      <stop
         style="stop-color:#ed7020;stop-opacity:1;"
         offset="0"
         id="stop4344-4" />
      <stop
         id="stop4350-8"
         offset="0.5"
         style="stop-color:#ff8333;stop-opacity:1;" />
      <stop
         style="stop-color:#ed7020;stop-opacity:1;"
         offset="1"
         id="stop4346-8" />
    </linearGradient>
    <linearGradient
       inkscape:collect="always"
       xlink:href="#linearGradient4342-2"
       id="linearGradient3912"
       gradientUnits="userSpaceOnUse"
       gradientTransform="matrix(1.0050248,0,0,1.0050248,70.117187,-65.630983)"
       x1="-921.01917"
       y1="288.31354"
       x2="-1320.0829"
       y2="284.33792" />
    <linearGradient
       id="linearGradient4342-2">
      <stop
         style="stop-color:#ed7020;stop-opacity:1;"
         offset="0"
         id="stop4344-45" />
      <stop
         id="stop4350-5"
         offset="0.5"
         style="stop-color:#ff8333;stop-opacity:1;" />
      <stop
         style="stop-color:#ed7020;stop-opacity:1;"
         offset="1"
         id="stop4346-1" />
    </linearGradient>
    <linearGradient
       inkscape:collect="always"
       xlink:href="#linearGradient4342-7"
       id="linearGradient3914"
       gradientUnits="userSpaceOnUse"
       gradientTransform="matrix(1.0050248,0,0,1.0050248,70.117187,-65.630983)"
       x1="-921.01917"
       y1="288.31354"
       x2="-1320.0829"
       y2="284.33792" />
    <linearGradient
       id="linearGradient4342-7">
      <stop
         style="stop-color:#ed7020;stop-opacity:1;"
         offset="0"
         id="stop4344-1" />
      <stop
         id="stop4350-1"
         offset="0.5"
         style="stop-color:#ff8333;stop-opacity:1;" />
      <stop
         style="stop-color:#ed7020;stop-opacity:1;"
         offset="1"
         id="stop4346-5" />
    </linearGradient>
    <linearGradient
       inkscape:collect="always"
       xlink:href="#linearGradient3886"
       id="linearGradient3927"
       gradientUnits="userSpaceOnUse"
       gradientTransform="matrix(1.2027994,0,0,1.2027994,-1291.7672,2660.8323)"
       x1="-921.01917"
       y1="288.31354"
       x2="-1320.0829"
       y2="284.33792" />
    <linearGradient
       id="linearGradient3886">
      <stop
         id="stop3888"
         offset="0"
         style="stop-color:#008ac2;stop-opacity:1;" />
      <stop
         style="stop-color:#009cdc;stop-opacity:1;"
         offset="0.5"
         id="stop3890" />
      <stop
         id="stop3892"
         offset="1"
         style="stop-color:#008ac2;stop-opacity:1;" />
    </linearGradient>
  </defs>
  <sodipodi:namedview
     id="base"
     pagecolor="#ffffff"
     bordercolor="#666666"
     borderopacity="1.0"
     inkscape:pageopacity="0.0"
     inkscape:pageshadow="2"
     inkscape:zoom="15.839192"
     inkscape:cx="-13.967065"
     inkscape:cy="1.3251053"
     inkscape:document-units="px"
     inkscape:current-layer="layer1"
     showgrid="false"
     inkscape:window-width="1920"
     inkscape:window-height="1017"
     inkscape:window-x="1912"
     inkscape:window-y="-8"
     inkscape:window-maximized="1" />
  <metadata
     id="metadata3504">
    <rdf:RDF>
      <cc:Work
         rdf:about="">
        <dc:format>image/svg+xml</dc:format>
        <dc:type
           rdf:resource="http://purl.org/dc/dcmitype/StillImage" />
        <dc:title />
      </cc:Work>
    </rdf:RDF>
  </metadata>
  <g
     inkscape:label="Ebene 1"
     inkscape:groupmode="layer"
     id="layer1"
     transform="translate(0,-1032.3622)">
    <rect
       style="fill:#ed7020;fill-opacity:1;stroke:none"
       id="rect4086"
       width="20"
       height="20"
       x="0"
       y="1032.3622" />
    <path
       id="path3877"
       d="m 5.140559,1034.7025 0,1.1094 -0.7623438,0 -0.9474598,0 -0.2892519,0 -0.3291079,0.8228 2.3281634,0 0,13.0485 0.8227638,0 0,-13.0485 10.0826972,0 0,3.831 0.41138,0 0,-3.831 0.730204,0 -0.41138,-0.8228 -1.344704,0 -1.756084,0 -1.754799,0 -5.9573142,0 0,-1.1094 -0.8227638,0 z m 1.9090675,3.1213 -0.052708,7.9075 3.0287945,0 0,0.3292 -0.1221272,0 0,1.8602 0.1221272,0 0,0.3291 -0.1221272,0 0,1.6802 0.4280912,-0.013 0,-1.6969 -0.134984,0 0,-0.3291 0.134984,0 0,-1.8448 -0.192836,0 0,-0.3291 0.192836,0 0,-0.6505 -0.08485,0 0,-1.4887 -0.2404,0 0,-0.3291 0.2404,0 0,-0.2815 0.65564,0 0,0.2815 1.361416,0 0,-5.4251 -5.2142585,0 z m 1.3601277,1.5568 0.6569238,0 0,2.0994 -0.6569238,0 0,-2.0994 z m 1.8370748,0 0.65564,0 0,2.0994 -0.65564,0 0,-2.0994 z m 2.261312,2.9016 -0.01029,0.9667 0.583648,0 0,0.3291 -0.105416,0 0,2.1392 0.237832,0 0,0.3291 -0.237832,0 0,1.8448 0.29568,0 0,0.3291 -0.29568,0 0,1.7882 0.557936,-0.013 0,-1.805 -0.1337,0 0,-0.3291 0.1337,0 0,-1.8011 -0.11956,0 0,-0.3291 0.11956,0 0,-2.1533 -0.325252,0 0,-0.3291 2.808967,0 0,-0.9667 -3.509599,0 z m -4.0983868,0.6852 0.6569238,0 0,2.0993 -0.6569238,0 0,-2.0993 z m 2.4927148,0.6106 0,1.4887 -0.3651,0 0,0.6505 1.7278,0 -0.0011,-2.1392 -1.361412,0 z m 1.591532,0 -0.02186,2.1392 0.298248,0 0,-2.1392 -0.276396,0 z m 1.245715,0 0,2.1533 0.113128,0 0,-2.0787 0.656924,0 0,2.0787 1.037456,0 0,-2.1533 -1.807508,0 z m 2.0132,0 0,2.1533 0.264824,0 0,-2.1533 -0.264824,0 z m -5.215547,2.4683 0,1.8448 1.7278,0 0,-1.8448 -1.7278,0 z m 1.93092,0 -0.01929,1.8448 0.321388,0 0,-1.8448 -0.302108,0 z m -5.4739425,0.014 -0.012864,1.8602 0.3278199,0 0,-1.8602 -0.314964,0 z m 0.5206519,0 0,1.8602 2.1417555,0 0,-1.8602 -2.1417555,0 z m 6.2247176,0 0,1.801 1.807508,0 0,-1.801 -1.807508,0 z m 2.0132,0 0,1.801 0.264824,0 0,-1.801 -0.264824,0 z m -2.0132,2.1301 0,1.7998 1.807508,-0.041 0,-1.7587 -1.807508,0 z m 2.0132,0 0,1.7548 0.264824,-0.01 0,-1.7484 -0.264824,0 z m -5.215547,0.03 0,1.6905 1.7278,-0.054 0,-1.6366 -1.7278,0 z m 1.90778,0 -0.01929,1.8011 0.344528,-0.01 0,-1.7934 -0.325248,0 z m -5.4662304,0.03 -0.011576,1.7715 0.3419599,-0.01 0,-1.7612 -0.3303919,0 z m 0.5360798,0 0,1.7548 2.1417555,-0.067 0,-1.688 -2.1417555,0 z"
       style="fill:#ffffff;fill-opacity:1;stroke:none"
       inkscape:connector-curvature="0" />
  </g>
</svg>
